# xmcd
#
# Track frame offsets:
#	150
#	13500
#	27013
#	40880
#	50700
#	68325
#	79800
#	90818
#	104538
#	115393
#
# Disc length: 1656 seconds
#
# Revision: 1
# Processed by: cddbd v1.5.2PL0 Copyright (c) Steve Scherf et al.
# Submitted via: EZCDAudioConverter 6.0.5.1
#
DISCID=7006760a
DTITLE=Johnny Paycheck - Honky Tonk and Slow Music
DYEAR=1996
DGENRE=Country
TTITLE0=Honky Tonk and Slow Music
TTITLE1=Nowhere To Run
TTITLE2=I Feel Like Crying
TTITLE3=I'm Rememering
TTITLE4=Coming Home To My Heart
TTITLE5=Make Me One More Memory
TTITLE6=I'm A Coward
TTITLE7=Keeping Up With The Jones
TTITLE8=I Don't Know When That Will Be
TTITLE9=The Johnsons Of Turkey Ridge
EXTD=
EXTT0=
EXTT1=
EXTT2=
EXTT3=
EXTT4=
EXTT5=
EXTT6=
EXTT7=
EXTT8=
EXTT9=
PLAYORDER=
